<?xml version="1.0" standalone="no"?>
<!DOCTYPE svg PUBLIC "-//W3C//DTD SVG 20010904//EN"
 "http://www.w3.org/TR/2001/REC-SVG-20010904/DTD/svg10.dtd">
<svg version="1.0" xmlns="http://www.w3.org/2000/svg" width="100.000000pt" height="100.000000pt" viewBox="0 0 300.000000 300.000000" preserveAspectRatio="xMidYMid meet">
		<g transform="translate(0.000000,300.000000) scale(0.100000,-0.100000)" fill="#0094c8" stroke="none">
		<path d="M1320 2990 c-514 -72 -935 -371 -1164 -829 -55 -109 -97 -232 -128 -374 -31 -147 -31 -427 0 -574 59 -273 174 -506 346 -701 220 -249 499 -411 839 -484 147 -32 427 -32 574 0 340 73 619 235 839 484 392 444 484 1094 230 1624 -211 439 -586 733 -1067 835 -108 23 -366 33 -469 19z m-1080 -999 l0 -148 77 18 c133 32 264 42 472 36 199 -5 307 -21 441 -64 l55 -18 3 -232 2 -231 -57 -17 c-311 -91 -710 -93 -1010 -4 l-73 22 0 393 0 394 45 0 45 0 0 -149z m2610 -245 l0 -395 -57 -16 c-313 -92 -713 -92 -1026 0 l-57 17 2 231 3 232 55 18 c134 43 242 58 447 64 212 6 328 -3 468 -36 l75 -18 0 148 0 149 45 0 45 0 0 -394z m-1742 -780 c14 -153 47 -292 98 -416 49 -118 50 -120 27 -120 -11 0 -28 -9 -38 -20 -23 -25 -32 -19 -57 39 -76 175 -128 403 -128 562 l0 89 43 0 43 0 12 -134z m878 87 c-3 -27 -8 -89 -11 -138 -8 -134 -57 -323 -120 -464 -29 -64 -35 -70 -54 -47 -7 8 -23 17 -37 20 -30 8 -30 7 16 116 59 141 109 374 110 513 l0 47 50 0 51 0 -5 -47z m-393 -376 c111 -151 121 -168 111 -196 -10 -29 -42 -38 -73 -22 -11 6 -44 45 -72 86 -29 41 -55 75 -58 75 -3 0 -32 -39 -64 -85 -50 -72 -62 -85 -86 -85 -15 0 -36 9 -45 19 -17 18 -17 22 -2 51 29 59 159 232 180 240 31 12 51 -4 109 -83z m-308 -297 c22 -25 13 -68 -17 -79 -54 -20 -94 27 -64 74 20 30 56 33 81 5z m486 10 c29 -16 25 -65 -6 -86 -23 -15 -27 -15 -50 0 -29 19 -33 56 -9 80 18 19 38 20 65 6z"/>
		<path d="M520 1810 c-41 -6 -121 -19 -177 -31 l-103 -22 0 -172 0 -173 88 -21 c241 -56 603 -52 835 10 l37 10 0 173 0 172 -72 17 c-40 9 -102 21 -138 27 -90 15 -379 21 -470 10z"/>
		<path d="M2120 1814 c-103 -13 -183 -26 -247 -41 l-73 -17 0 -172 0 -172 88 -21 c241 -56 603 -52 835 10 l37 10 0 173 0 172 -72 17 c-40 9 -102 21 -138 27 -69 12 -371 21 -430 14z"/>
		</g>
		</svg>
